Patient4_TMGait_0pt7_01_right_16_GRF.mot
version=1
nRows=39
nColumns=19
inDegrees=no
endheader
time	F1x	F1y	F1z	M1x	M1y	M1z	F2x	F2y	F2z	M2x	M2y	M2z	EC1x	EC1y	EC1z	EC2x	EC2y	EC2z
17.76	10.68	698.6733	77.7367	-247.8595	-76.4498	739.7559	3.8495	10.3751	16.3616	-0.48769	-11.5102	5.4716	-0.0592	0.0182	-0.0073	-0.0462	0.0165	0.9585
17.7715	7.7891	700.5356	74.8887	-247.2443	-74.6134	740.0286	2.562	8.0654	11.1968	0.025883	-7.7943	4.9142	-0.0592	0.0182	-0.0073	-0.0462	0.0165	0.9585
17.783	6.0127	703.3992	72.0187	-247.2136	-72.2586	740.5423	1.44	6.094	6.734	0.49432	-4.5894	4.4636	-0.0592	0.0182	-0.0073	-0.0462	0.0165	0.9585
17.7945	5.4518	707.3466	69.3387	-247.8629	-69.5319	741.4469	0.53704	4.6008	3.2772	0.87907	-2.1032	4.1737	-0.0592	0.0182	-0.0073	-0.0462	0.0165	0.9585
17.806	6.0335	712.22	66.9153	-249.1346	-66.5324	742.6757	-0.10136	3.6076	0.86023	1.1747	-0.36852	4.0488	-0.0592	0.0182	-0.0073	-0.0462	0.0165	0.9585
17.8175	7.5574	717.6994	64.8197	-250.8652	-63.4213	744.0645	-0.54846	3.0385	-0.66427	1.3813	0.73325	4.056	-0.0592	0.0182	-0.0073	-0.0462	0.0165	0.9585
17.829	9.8386	723.3609	63.0395	-252.8419	-60.2799	745.304	-0.83691	2.7628	-1.4934	1.5014	1.3462	4.1035	-0.0592	0.0182	-0.0073	-0.0462	0.0165	0.9585
17.8405	12.6772	728.8494	61.558	-254.868	-57.1909	746.1625	-1.0473	2.6392	-1.8433	1.5347	1.6401	4.1161	-0.0592	0.0182	-0.0073	-0.0462	0.0165	0.9585
17.852	15.9498	733.953	60.3704	-256.8046	-54.217	746.5018	-1.2201	2.4768	-1.8988	1.4624	1.7484	3.9308	-0.0592	0.0182	-0.0073	-0.0462	0.0165	0.9585
17.8635	19.5284	738.6732	59.4819	-258.5916	-51.432	746.4081	-1.3989	2.1213	-1.8007	1.2632	1.7758	3.4301	-0.0592	0.0182	-0.0073	-0.0462	0.0165	0.9585
17.875	23.3074	743.1582	58.9657	-260.2312	-48.9636	746.0945	-1.5851	1.3698	-1.6595	0.89396	1.7945	2.4048	-0.0592	0.0182	-0.0073	-0.0462	0.0165	0.9585
17.8865	27.1698	747.6726	58.8513	-261.7779	-46.8982	745.8919	-1.7684	0.089338	-1.5236	0.32324	1.8247	0.72366	-0.0592	0.0182	-0.0073	-0.0462	0.0165	0.9585
17.898	31.0045	752.4263	59.2274	-263.2849	-45.3634	746.0391	-1.8833	-1.8467	-1.4311	-0.48102	1.8616	-1.7565	-0.0592	0.0182	-0.0073	-0.0462	0.0165	0.9585
17.9095	34.7162	757.49	60.0901	-264.7746	-44.3893	746.6307	-1.8593	-4.4155	-1.3505	-1.5083	1.8337	-4.997	-0.0592	0.0182	-0.0073	-0.0462	0.0165	0.9585
17.921	38.2378	762.6775	61.4341	-266.1929	-43.9892	747.5031	-1.5528	-7.4501	-1.2522	-2.6921	1.6438	-8.805	-0.0592	0.0182	-0.0073	-0.0462	0.0165	0.9585
17.9325	41.4954	767.5259	63.1288	-267.3975	-44.0557	748.2225	-0.81043	-10.491	-1.0613	-3.8572	1.1421	-12.6101	-0.0592	0.0182	-0.0073	-0.0462	0.0165	0.9585
17.944	44.4148	771.2534	65.0354	-268.134	-44.471	748.0528	0.59064	-12.74	-0.68843	-4.6923	0.14154	-15.4437	-0.0592	0.0182	-0.0073	-0.0462	0.0165	0.9585
17.9555	46.9186	772.9127	66.9861	-268.0844	-45.0935	746.0997	2.8346	-12.8931	-0.02815	-4.6971	-1.5489	-15.6964	-0.0592	0.0182	-0.0073	-0.0462	0.0165	0.9585
17.967	48.9579	771.6398	68.8293	-266.9556	-45.7904	741.54	6.0952	-9.1181	1.034	-3.1632	-4.1148	-11.1286	-0.0592	0.0182	-0.0073	-0.0462	0.0165	0.9585
17.9785	50.5566	766.8513	70.453	-264.5537	-46.4495	733.8223	10.3645	0.98377	2.5635	0.83243	-7.6309	1.2077	-0.0592	0.0182	-0.0073	-0.0462	0.0165	0.9585
17.99	51.7912	758.2437	71.7231	-260.7909	-46.9251	722.6456	15.4257	20.1876	4.5671	8.3577	-12.0014	24.7226	-0.0592	0.0182	-0.0073	-0.0462	0.0165	0.9585
18.0015	52.7849	745.6579	72.5268	-255.6377	-47.0791	707.8624	20.6072	51.2794	6.9077	20.4746	-16.7865	62.8855	-0.0592	0.0182	-0.0073	-0.0462	0.0165	0.9585
18.013	53.6657	728.9277	72.6625	-249.077	-46.6944	689.322	24.6958	96.3066	9.2603	37.9513	-21.0868	118.2351	-0.0592	0.0182	-0.0073	-0.0462	0.0165	0.9585
18.0245	54.4813	707.6253	71.911	-241.015	-45.5639	666.6555	25.6578	155.4444	10.9958	60.818	-23.3309	191.0347	-0.0592	0.0182	-0.0073	-0.0462	0.0165	0.9585
18.036	55.1662	680.8939	70.0041	-231.2196	-43.4777	639.1243	21.058	225.7565	11.1678	87.8913	-21.4421	277.7181	-0.0592	0.0182	-0.0073	-0.0462	0.0165	0.9585
18.0475	55.4863	647.5143	66.7309	-219.3273	-40.331	605.6764	9.3615	300.5195	8.7361	116.507	-13.5784	370.038	-0.0592	0.0182	-0.0073	-0.0462	0.0165	0.9585
18.059	55.0707	606.2407	61.9948	-204.9482	-36.1747	565.2483	-7.4916	370.7531	2.389	143.1683	0.91047	456.8041	-0.0592	0.0182	-0.0073	-0.0462	0.0165	0.9585
18.0705	53.5414	556.4447	55.9164	-187.8674	-31.2537	517.3257	-25.406	430.8388	-7.245	165.7127	19.6425	530.6354	-0.0592	0.0182	-0.0073	-0.0462	0.0165	0.9585
18.082	50.5557	498.5649	48.8866	-168.2004	-26.031	462.3752	-41.6588	479.746	-18.455	183.8222	39.4648	589.8208	-0.0592	0.0182	-0.0073	-0.0462	0.0165	0.9585
18.0935	45.985	434.2056	41.4784	-146.437	-21.0503	401.8672	-54.4811	520.0924	-29.8517	198.5775	57.9997	637.2931	-0.0592	0.0182	-0.0073	-0.0462	0.0165	0.9585
18.105	39.8225	365.99	34.1867	-123.4117	-16.7325	338.2243	-63.1241	555.1678	-39.7549	211.3329	73.0434	677.0741	-0.0592	0.0182	-0.0073	-0.0462	0.0165	0.9585
18.1165	32.3282	297.2174	27.429	-100.2038	-13.3486	274.4166	-67.702	586.9592	-47.7632	222.9115	84.1173	711.7514	-0.0592	0.0182	-0.0073	-0.0462	0.0165	0.9585
18.128	24.0055	231.49	21.4407	-78.0109	-10.9259	213.7134	-68.8105	616.5613	-53.624	233.7315	91.2444	742.784	-0.0592	0.0182	-0.0073	-0.0462	0.0165	0.9585
18.1395	15.7187	172.0234	16.3697	-57.9225	-9.3026	158.9345	-67.2097	644.224	-58.0405	243.8491	95.5353	770.6871	-0.0592	0.0182	-0.0073	-0.0462	0.0165	0.9585
18.151	8.3484	121.1206	12.2071	-40.7215	-8.1632	112.1188	-63.6643	670.0363	-61.44	253.2397	97.8576	795.7914	-0.0592	0.0182	-0.0073	-0.0462	0.0165	0.9585
18.1625	2.5774	79.7071	8.8447	-26.7424	-7.1736	74.0196	-58.94	693.6817	-64.3876	261.7202	99.1756	817.9814	-0.0592	0.0182	-0.0073	-0.0462	0.0165	0.9585
18.174	-1.3882	47.8556	6.1274	-16.0077	-6.1166	44.7179	-53.9556	714.6091	-67.1339	269.0461	100.1335	836.9272	-0.0592	0.0182	-0.0073	-0.0462	0.0165	0.9585
18.1855	-3.537	24.8053	3.9368	-8.2632	-4.8905	23.4846	-49.3882	732.4202	-69.6778	275.0399	101.0015	852.3802	-0.0592	0.0182	-0.0073	-0.0462	0.0165	0.9585
18.197	-4.2317	9.4427	2.2226	-3.1176	-3.5738	9.3507	-45.7266	746.9762	-71.9322	279.6365	101.8453	864.3704	-0.0592	0.0182	-0.0073	-0.0462	0.0165	0.9585
